HIERARCHY
ROOT RootJoint
{
    OFFSET   0.000000   0.000000   0.000000
    CHANNELS 6 Xposition Yposition Zposition Xrotation Yrotation Zrotation
    JOINT pelvis_lowerback
    {
        OFFSET   0.000000   0.093605   0.000000
        CHANNELS 3 Xrotation Yrotation Zrotation
        JOINT lowerback_torso
        {
            OFFSET   0.000000   0.100000   0.000000
            CHANNELS 3 Xrotation Yrotation Zrotation
            JOINT torso_head
            {
                OFFSET   0.000000   0.282350   0.000000
                CHANNELS 3 Xrotation Yrotation Zrotation
                End Site
                {
                    OFFSET   0.000000   0.192650   0.000000
                }
            }
            JOINT rTorso_Clavicle
            {
                OFFSET  -0.001000   0.157500   0.000000
                CHANNELS 3 Xrotation Yrotation Zrotation
                JOINT rShoulder
                {
                    OFFSET  -0.117647   0.000000   0.000000
                    CHANNELS 3 Xrotation Yrotation Zrotation
                    JOINT rElbow
                    {
                        OFFSET  -0.245000   0.000000   0.000000
                        CHANNELS 3 Xrotation Yrotation Zrotation
                        JOINT rWrist
                        {
                            OFFSET  -0.240000   0.000000   0.000000
                            CHANNELS 3 Xrotation Yrotation Zrotation
                            End Site
                            {
                                OFFSET  -0.116353  -0.002500   0.000000
                            }
                        }
                    }
                }
            }
            JOINT lTorso_Clavicle
            {
                OFFSET   0.001000   0.157500   0.000000
                CHANNELS 3 Xrotation Yrotation Zrotation
                JOINT lShoulder
                {
                    OFFSET   0.117647   0.000000   0.000000
                    CHANNELS 3 Xrotation Yrotation Zrotation
                    JOINT lElbow
                    {
                        OFFSET   0.245000   0.000000   0.000000
                        CHANNELS 3 Xrotation Yrotation Zrotation
                        JOINT lWrist
                        {
                            OFFSET   0.240000   0.000000   0.000000
                            CHANNELS 3 Xrotation Yrotation Zrotation
                            End Site
                            {
                                OFFSET   0.116353  -0.002500   0.000000
                            }
                        }
                    }
                }
            }
        }
    }
    JOINT rHip
    {
        OFFSET  -0.100000  -0.051395   0.000000
        CHANNELS 3 Xrotation Yrotation Zrotation
        JOINT rKnee
        {
            OFFSET   0.000000  -0.410000   0.000000
            CHANNELS 3 Xrotation Yrotation Zrotation
            JOINT rAnkle
            {
                OFFSET   0.000000  -0.390000   0.000000
                CHANNELS 3 Xrotation Yrotation Zrotation
                JOINT rToeJoint
                {
                    OFFSET   0.000000  -0.050000   0.130000
                    CHANNELS 3 Xrotation Yrotation Zrotation
                    End Site
                    {
                        OFFSET  -0.010000   0.002000   0.060000
                    }
                }
            }
        }
    }
    JOINT lHip
    {
        OFFSET   0.100000  -0.051395   0.000000
        CHANNELS 3 Xrotation Yrotation Zrotation
        JOINT lKnee
        {
            OFFSET   0.000000  -0.410000   0.000000
            CHANNELS 3 Xrotation Yrotation Zrotation
            JOINT lAnkle
            {
                OFFSET   0.000000  -0.390000   0.000000
                CHANNELS 3 Xrotation Yrotation Zrotation
                JOINT lToeJoint
                {
                    OFFSET   0.000000  -0.050000   0.130000
                    CHANNELS 3 Xrotation Yrotation Zrotation
                    End Site
                    {
                        OFFSET   0.010000   0.002000   0.060000
                    }
                }
            }
        }
    }
}
MOTION
Frames: 5
Frame Time:   0.008333
 -2.245732   1.075000   4.078535   5.576009 -26.582844   0.735949  -0.333329   0.817765   0.918711  -4.717040  -3.103390  -0.118943  -1.062016  -2.555356  -3.792439  -6.429079  -5.146996 -18.396644 -16.581179  -0.111300  11.064158  -0.035830  14.309262   0.019807   1.864491   1.060618  -8.161102  -3.161114   5.696117  18.475850 -13.889376   1.347322 -11.900442  -0.022339 -12.599337  -0.012885   1.181425  -6.032031   8.806856 -12.857125  -8.806094  -9.806711  27.780354   0.001356   0.000426  17.238275  -4.515683  13.622698  -0.500115  -0.002660  -0.000599  -9.060808   8.362284   5.378777  14.407119   0.000213  -0.001478  30.979469   4.771666  -9.375075  -5.324635   0.007290  -0.004338
 -2.245535   1.073784   4.077491   5.600273 -26.552997   0.817076  -0.049756   0.903383   0.705642  -4.679416  -3.002148  -0.178090  -1.285628  -2.469769  -3.707163  -6.176081  -5.383343 -17.615200 -15.946835  -0.508528  12.449806  -0.030988  14.188537   0.016978   1.803276   0.905465  -8.179849  -3.056087   5.929803  17.819893 -13.158065   1.572837 -13.189611  -0.014496 -12.775695  -0.008463   1.070195  -5.694362   8.749440 -12.798587  -8.935585  -9.707402  27.734634   0.001160   0.000347  16.929683  -4.544650  13.594066  -0.360391  -0.002343  -0.000392  -9.145006   8.255154   5.316436  14.631544   0.000121  -0.001338  29.783591   4.920396  -9.182315  -4.928705   0.005261  -0.003851
 -2.245195   1.071916   4.076330   5.611788 -26.516891   0.879662   0.256101   0.985869   0.516416  -4.615193  -2.905575  -0.225279  -1.501824  -2.388127  -3.627816  -5.917309  -5.572387 -16.788900 -15.336863  -0.861343  13.829363  -0.026976  14.078048   0.014637   1.752500   0.786042  -8.093645  -2.936757   6.105673  17.124243 -12.466711   1.743128 -14.470377  -0.008093 -12.956035  -0.004901   0.987269  -5.466911   8.590127 -12.763756  -9.060723  -9.590458  27.711616   0.000967   0.000279  16.641231  -4.571924  13.567299  -0.242645  -0.002060  -0.000227  -9.234651   8.150026   5.234181  14.854586   0.000117  -0.001219  28.666691   5.055661  -8.998990  -4.572595   0.003822  -0.003442
 -2.244746   1.069354   4.075110   5.620537 -26.471476   0.931476   0.570173   1.061248   0.348101  -4.530860  -2.817742  -0.260527  -1.703888  -2.311842  -3.553818  -5.661957  -5.721273 -15.952118 -14.755973  -1.170574  15.171518  -0.023575  13.976793   0.012677   1.707575   0.688163  -7.907186  -2.812866   6.237211  16.419288 -11.817547   1.871832 -15.713320  -0.003134 -13.130720  -0.002154   0.917703  -5.295414   8.343651 -12.744794  -9.179043  -9.462451  27.689836   0.000811   0.000220  16.371918  -4.597031  13.542411  -0.135769  -0.001814  -0.000088  -9.326664   8.052896   5.133314  15.061467   0.000167  -0.001093  27.623613   5.177973  -8.825709  -4.246556   0.002821  -0.003080
 -2.244216   1.066070   4.073871   5.631615 -26.416243   0.976406   0.885701   1.129240   0.199151  -4.433587  -2.738510  -0.285118  -1.891726  -2.240860  -3.484433  -5.415182  -5.839663 -15.129170 -14.205323  -1.440901  16.460092  -0.020636  13.884307   0.011016   1.667543   0.608260  -7.656422  -2.689640   6.336387  15.727003 -11.209759   1.966938 -16.903442   0.000589 -13.298495  -0.000080   0.857239  -5.160328   8.044707 -12.738360  -9.290220  -9.327920  27.666294   0.000688   0.000170  16.120294  -4.620202  13.519230  -0.038940  -0.001594   0.000025  -9.419324   7.963737   5.017246  15.251644   0.000243  -0.000963  26.649361   5.288714  -8.662213  -3.948430   0.002133  -0.002750
